<?xml version="1.0" encoding="UTF-8"?>
<!DOCTYPE svg PUBLIC "-//W3C//DTD SVG 1.0//EN" "http://www.w3.org/TR/2001/REC-SVG-20010904/DTD/svg10.dtd">
<!-- Creator: CorelDRAW X8 -->
<svg xmlns="http://www.w3.org/2000/svg" xml:space="preserve" width="49.6012mm" height="55.2658mm" version="1.0" shape-rendering="geometricPrecision" text-rendering="geometricPrecision" image-rendering="optimizeQuality" fill-rule="evenodd" clip-rule="evenodd" viewBox="0 0 1466772 1634282" xmlns:xlink="http://www.w3.org/1999/xlink">
 <g id="Слой_x0020_1">
  <metadata id="CorelCorpID_0Corel-Layer"/>
  <g id="_2672806376832">
   <path fill="#BAA26A" fill-rule="nonzero" d="M223707 1369941c26076,9868 39123,28125 39123,54775 0,21203 -7603,37822 -22800,49834 -7706,6015 -16642,10353 -26785,13011 -10155,2664 -22708,4001 -37680,4001l-158698 0 0 -5444c4081,-1130 6920,-2605 8508,-4427 1588,-1810 2384,-4477 2384,-7990l0 -196463c0,-3504 -796,-6171 -2384,-7990 -1588,-1813 -4427,-3288 -8508,-4418l0 -5444 157169 0c15081,0 27215,1135 36396,3398 9191,2271 17240,6124 24154,11571 13721,10770 20588,26307 20588,46601 0,22682 -10492,39014 -31467,48985zm-145263 -18192l0 0 88956 0c13497,0 22900,-1984 28235,-5953 6015,-4542 9019,-11571 9019,-21096 0,-9756 -2839,-16690 -8505,-20839 -5674,-4137 -15252,-6207 -28749,-6207l-88956 0 0 54095zm0 101545l0 0 86064 0c15989,0 27501,-2218 34534,-6642 8049,-5101 12073,-13428 12073,-24999 0,-11450 -4024,-19787 -12073,-25006 -6920,-4421 -18429,-6636 -34534,-6636l-86064 0 0 63283z"/>
   <path fill="#BAA26A" fill-rule="nonzero" d="M419649 1297654l0 176047c0,3513 796,6180 2384,7990 1588,1822 4418,3297 8499,4427l0 5444 -72456 0 0 -5444c4081,-1130 6920,-2605 8505,-4427 1591,-1810 2383,-4477 2383,-7990l0 -176047 -72121 0c-3407,0 -6015,781 -7828,2336 -1813,1556 -3285,4406 -4418,8552l-5444 0 0 -60047 5444 0c1242,4134 2747,6987 4504,8546 1762,1564 4335,2345 7742,2345l194756 0c3510,0 6181,-781 7996,-2345 1810,-1559 3283,-4412 4421,-8546l5444 0 0 60047 -5444 0c-1138,-4146 -2611,-6996 -4421,-8552 -1815,-1555 -4486,-2336 -7996,-2336l-71950 0z"/>
   <path fill="#BAA26A" fill-rule="nonzero" d="M747335 1255302c40504,0 72618,10941 96334,32833 25077,22903 37612,52498 37612,88779 0,22232 -6015,42985 -18038,62263 -23492,37641 -62011,56460 -115571,56460 -40167,0 -72107,-10933 -95823,-32815 -12707,-11684 -22356,-25689 -28938,-42024 -5787,-14392 -8679,-29527 -8679,-45404 0,-23252 5961,-44511 17878,-63788 22800,-36855 61210,-55621 115225,-56304zm166 39460l0 0c-22129,0 -40578,6568 -55337,19715 -17480,15519 -26215,35850 -26215,60994 0,25147 8735,45481 26215,61006 14759,13132 33318,19700 55683,19700 22358,0 40861,-6568 55508,-19700 8738,-7822 15430,-17400 20091,-28723 4083,-10084 6124,-20493 6124,-31266 0,-26274 -8741,-46947 -26215,-62011 -14874,-12914 -33490,-19487 -55854,-19715z"/>
   <path fill="#BAA26A" fill-rule="nonzero" d="M974999 1332522l0 141179c0,3513 795,6180 2386,7990 1585,1822 4415,3297 8508,4427l0 5444 -68212 0 0 -5444c4077,-1130 6916,-2605 8507,-4427 1585,-1810 2381,-4477 2381,-7990l0 -196626c0,-3403 -796,-6008 -2381,-7827 -1591,-1813 -4430,-3288 -8507,-4418l0 -5444 78925 0 0 5444c-4882,1242 -7316,3850 -7316,7825 0,2717 1591,5722 4767,9007l128071 133192 0 -137779c0,-3403 -781,-6008 -2369,-7827 -1603,-1813 -4433,-3288 -8508,-4418l0 -5444 68204 0 0 5444c-4087,1130 -6917,2605 -8508,4418 -1585,1819 -2381,4424 -2381,7827l0 196626c0,3513 796,6180 2381,7990 1591,1822 4421,3297 8508,4427l0 5444 -73139 0 0 -5444c4761,-1026 7144,-3463 7144,-7316 0,-2268 -2776,-6231 -8336,-11905l-130125 -134375z"/>
   <path fill="#BAA26A" fill-rule="nonzero" d="M1282866 1389677l0 63617 149349 0c3401,0 6006,-793 7819,-2390 1813,-1587 3297,-4417 4433,-8498l5438 0 0 60041 -5438 0c-1136,-4084 -2620,-6922 -4433,-8507 -1813,-1591 -4418,-2378 -7819,-2378l-210923 0 0 -5444c4090,-1130 6920,-2605 8505,-4427 1588,-1810 2383,-4477 2383,-7990l0 -196463c0,-3504 -795,-6171 -2383,-7990 -1585,-1813 -4415,-3288 -8505,-4418l0 -5444 206834 0c3403,0 6020,-807 7833,-2428 1813,-1617 3280,-4439 4418,-8463l5438 0 0 60047 -5438 0c-1138,-4036 -2605,-6851 -4418,-8469 -1813,-1612 -4430,-2419 -7833,-2419l-145260 0 0 55112 94228 0c3413,0 6021,-792 7834,-2380 1813,-1588 3279,-4427 4421,-8508l5450 0 0 58678 -5450 0c-1142,-3962 -2608,-6768 -4421,-8416 -1813,-1638 -4421,-2463 -7834,-2463l-94228 0z"/>
  </g>
  <g id="_2672806377664">
   <path fill="#BAA26A" d="M733377 37839c15386,45109 66361,81880 126844,60814 -13036,18207 -23930,36050 -37012,54231 -17973,-59 -54317,-178 -91003,-314 -33956,-136 -68200,-257 -88394,-328 -12444,-18526 -25210,-35234 -36905,-54479 63640,21365 108736,-15502 126470,-59924z"/>
   <path fill="#BAA26A" d="M748550 13550c-26,7457 -6094,13469 -13543,13443 -7452,-30 -13473,-6089 -13452,-13529 26,-7479 6094,-13505 13543,-13458 7444,15 13485,6074 13452,13544z"/>
   <path fill="#BAA26A" d="M607495 79757c-23,7458 -6106,13467 -13549,13440 -7458,-12 -13479,-6083 -13443,-13541 11,-7467 6076,-13455 13552,-13443 7449,27 13467,6086 13440,13544z"/>
   <path fill="#BAA26A" d="M887539 80753c-12,7458 -6089,13470 -13550,13458 -7449,-50 -13470,-6100 -13443,-13555 26,-7464 6094,-13479 13546,-13432 7464,15 13491,6060 13447,13529z"/>
   <path fill="#FEFEFE" fill-rule="nonzero" d="M807678 514103c0,0 49902,125791 -79881,191678 -129803,65915 -91860,221682 5985,301512l45940 43946c0,0 -43955,-87853 25942,-149766 69886,-61905 99854,-123813 99854,-123813 0,0 -11988,93863 -21975,105854 0,0 81872,-73884 95853,-173746 0,0 17956,67892 7993,99862 0,0 67352,-93602 43931,-221670 0,0 27182,37183 41909,115012 0,0 64926,-142959 -73858,-232815 0,0 59906,21948 76871,44919 0,0 -8452,-78024 -69357,-125335 0,0 -43464,1558 -57445,4518 0,0 13981,-17970 60911,-21947 0,0 -38936,-53897 -99841,-62907 0,0 -29947,6009 -51919,24955 0,0 11979,-33957 45927,-47903 0,0 -41944,-24982 -105838,-17985 0,0 -16965,17985 -22962,45918 0,0 -10989,-32927 9989,-57883 0,0 -101317,8943 -150240,35870 0,0 -27371,82111 108201,178233l108846 -29927c0,0 -2558,68733 -44836,73420z"/>
   <path fill="#FEFEFE" fill-rule="nonzero" d="M673519 725934c-5125,-10190 -6231,-19200 -6231,-19200 154667,-36273 126572,-201774 66199,-253311 -30556,-26091 -41855,-70519 -56647,-87839l-122141 24565c-17619,13591 -4551,28767 -4551,28767 0,0 27158,19822 79842,20795l-73609 9099c0,0 -8200,360 -6946,-21292l-133609 42193c0,0 -45363,17929 -23592,59577 0,0 -52483,22276 -8673,79417l21368 3365 408 38265c0,0 20797,-17453 30275,-36701l92041 -74c0,0 29799,93549 -60403,93490 0,0 -19875,3418 -38555,-17003 0,0 11811,31327 13390,45782l7955 23080c0,0 46501,12692 72778,-20153 11154,-13951 57711,-33746 76832,-21430 15617,10063 27339,39673 33963,60530 8395,-19157 21291,-36873 39906,-51922z"/>
   <path fill="#BAA26A" fill-rule="nonzero" d="M907949 164866l-196 8874c65684,25269 125534,64933 175639,117277 89498,93499 137232,216249 134408,345653 -2827,129393 -55878,249949 -149380,339452 -93498,89498 -216249,137229 -345638,134408 -129407,-2827 -249954,-55878 -339458,-149380 -89501,-93498 -137229,-216249 -134405,-345644 2825,-129401 55875,-249954 149374,-339452 49408,-47296 106998,-82921 169411,-105587l189 -8949c-187103,66687 -322877,243393 -327475,453802 -5944,272242 209929,497765 482178,503706 272236,5949 497759,-209924 503706,-482172 4684,-214576 -128446,-400097 -318353,-471988z"/>
   <path fill="#BAA26A" fill-rule="nonzero" d="M921179 128916l-219 9534c70658,27185 135034,69850 188943,126157 96269,100569 147608,232614 144568,371800 -3037,139186 -60104,268854 -160676,365135 -100569,96266 -232610,147617 -371797,144577 -139189,-3049 -268859,-60107 -365131,-160676 -96270,-100569 -147612,-232620 -144575,-371809 3040,-139180 60101,-268853 160670,-365129 53149,-50874 115098,-89193 182233,-113577l207 -9620c-201268,71735 -347309,261810 -352250,488134 -6396,292839 225804,535412 518642,541806 292839,6402 535421,-225804 541824,-518643 5033,-230810 -138169,-430363 -342439,-507689z"/>
  </g>
  <g id="_2672806378880">
   <polygon fill="#FEFEFE" fill-rule="nonzero" stroke="#FEFEFE" stroke-width="4435.7" points="21102,1572378 2218,1572378 2218,1565810 46427,1565810 46427,1572378 27534,1572378 27534,1629690 21102,1629690 "/>
   <path fill="#FEFEFE" fill-rule="nonzero" stroke="#FEFEFE" stroke-width="4435.7" d="M74381 1565810l21054 0c12704,0 21058,7659 21058,20439 0,13778 -10125,20898 -22098,20898l-13668 0 0 22543 -6346 0 0 -63880zm20253 34764l0 0c9321,0 15430,-5657 15430,-14236 0,-9126 -6026,-13866 -15108,-13866l-14229 0 0 28102 13907 0z"/>
   <path fill="#FEFEFE" fill-rule="nonzero" stroke="#FEFEFE" stroke-width="4435.7" d="M159318 1565357l5953 0 25638 64333 -6831 0 -6591 -16886 -30624 0 -6674 16886 -6506 0 25635 -64333zm15679 40971l0 0 -12787 -32578 -12857 32578 25644 0z"/>
   <polygon fill="#FEFEFE" fill-rule="nonzero" stroke="#FEFEFE" stroke-width="4435.7" points="218059,1565810 224408,1565810 224408,1594192 256880,1594192 256880,1565810 263229,1565810 263229,1629690 256880,1629690 256880,1600940 224408,1600940 224408,1629690 218059,1629690 "/>
   <path fill="#FEFEFE" fill-rule="nonzero" stroke="#FEFEFE" stroke-width="4435.7" d="M292706 1597747c0,-18071 11902,-33037 28456,-33037 10211,0 16155,4288 21776,10320l-4175 5107c-4737,-5107 -10051,-8765 -17684,-8765 -12452,0 -21785,11500 -21785,26375 0,14788 9407,26371 21785,26371 7718,0 12778,-3377 18166,-9208l4184 5015c-5867,6754 -12295,10859 -22506,10859 -16238,0 -28217,-14508 -28217,-33037z"/>
   <path fill="#FEFEFE" fill-rule="nonzero" stroke="#FEFEFE" stroke-width="4435.7" d="M395490 1625035c-18163,0 -28457,-10950 -28457,-27560 0,-16613 10374,-27472 28457,-27472l0 -6293 6349 0 0 6293c18085,0 28456,10859 28456,27472 0,16610 -10288,27560 -28456,27560l0 7026 -6349 0 0 -7026zm0 -48461l0 0c-13905,0 -21862,7484 -21862,20989 0,13600 7957,20904 21862,20904l0 -41893zm28217 20989l0 0c0,-13505 -7958,-20989 -21868,-20989l0 41893c13910,0 21868,-7304 21868,-20904z"/>
   <polygon fill="#FEFEFE" fill-rule="nonzero" stroke="#FEFEFE" stroke-width="4435.7" points="458722,1565810 499391,1565810 499391,1572378 465077,1572378 465077,1594192 495778,1594192 495778,1600760 465077,1600760 465077,1623116 499797,1623116 499797,1629690 458722,1629690 "/>
   <path fill="#FEFEFE" fill-rule="nonzero" stroke="#FEFEFE" stroke-width="4435.7" d="M528637 1565810l21052 0c12707,0 21067,7659 21067,20439 0,13778 -10134,20898 -22108,20898l-13662 0 0 22543 -6349 0 0 -63880zm20251 34764l0 0c9327,0 15439,-5657 15439,-14236 0,-9126 -6032,-13866 -15114,-13866l-14227 0 0 28102 13902 0z"/>
   <polygon fill="#FEFEFE" fill-rule="nonzero" stroke="#FEFEFE" stroke-width="4435.7" points="598387,1565810 604736,1565810 604736,1594192 637208,1594192 637208,1565810 643557,1565810 643557,1629690 637208,1629690 637208,1600940 604736,1600940 604736,1629690 598387,1629690 "/>
   <path fill="#FEFEFE" fill-rule="nonzero" stroke="#FEFEFE" stroke-width="4435.7" d="M696348 1565357l5941 0 25644 64333 -6834 0 -6588 -16886 -30627 0 -6671 16886 -6515 0 25650 -64333zm15670 40971l0 0 -12781 -32578 -12860 32578 25641 0z"/>
   <path fill="#FEFEFE" fill-rule="nonzero" stroke="#FEFEFE" stroke-width="4435.7" d="M768097 1604042c-9001,-1824 -15347,-8306 -15347,-18978 0,-4927 1443,-9667 4258,-12772 3454,-3933 9158,-6482 16400,-6482l24030 0 0 63880 -6346 0 0 -24453 -16161 0 -16717 24453 -7718 0 17601 -25648zm22995 -4926l0 0 0 -26824 -17285 0c-9241,0 -14711,5201 -14711,13322 0,8297 6109,13502 14711,13502l17285 0z"/>
   <polygon fill="#FEFEFE" fill-rule="nonzero" stroke="#FEFEFE" stroke-width="4435.7" points="869586,1565810 875935,1565810 875935,1603960 908250,1565810 916447,1565810 892335,1593731 917491,1629690 909537,1629690 887908,1598758 875935,1612535 875935,1629690 869586,1629690 "/>
   <path fill="#FEFEFE" fill-rule="nonzero" stroke="#FEFEFE" stroke-width="4435.7" d="M938534 1597747c0,-17610 11651,-33037 28773,-33037 17119,0 28619,15247 28619,33037 0,17615 -11657,33037 -28779,33037 -17118,0 -28613,-15241 -28613,-33037zm50795 0l0 0c0,-14511 -9321,-26375 -22182,-26375 -12860,0 -22024,11681 -22024,26375 0,14510 9321,26371 22184,26371 12858,0 22022,-11671 22022,-26371z"/>
   <polygon fill="#FEFEFE" fill-rule="nonzero" stroke="#FEFEFE" stroke-width="4435.7" points="1025400,1565810 1031829,1565810 1052328,1600668 1072815,1565810 1079243,1565810 1079243,1629690 1072900,1629690 1072900,1577946 1052410,1612166 1052079,1612166 1031580,1578032 1031580,1629690 1025400,1629690 "/>
   <polygon fill="#FEFEFE" fill-rule="nonzero" stroke="#FEFEFE" stroke-width="4435.7" points="1111219,1565810 1155585,1565810 1155585,1629690 1149239,1629690 1149239,1572378 1117568,1572378 1117568,1629690 1111219,1629690 "/>
   <path fill="#FEFEFE" fill-rule="nonzero" stroke="#FEFEFE" stroke-width="4435.7" d="M1208372 1565357l5950 0 25639 64333 -6829 0 -6594 -16886 -30630 0 -6662 16886 -6515 0 25641 -64333zm15679 40971l0 0 -12781 -32578 -12860 32578 25641 0z"/>
   <polygon fill="#FEFEFE" fill-rule="nonzero" stroke="#FEFEFE" stroke-width="4435.7" points="1267113,1565810 1273462,1565810 1273462,1594192 1305925,1594192 1305925,1565810 1312286,1565810 1312286,1629690 1305925,1629690 1305925,1600940 1273462,1600940 1273462,1629690 1267113,1629690 "/>
   <polygon fill="#FEFEFE" fill-rule="nonzero" stroke="#FEFEFE" stroke-width="4435.7" points="1344250,1565810 1350593,1565810 1350593,1618831 1384203,1565810 1390236,1565810 1390236,1629690 1383955,1629690 1383955,1576665 1350442,1629690 1344250,1629690 "/>
   <path fill="#FEFEFE" fill-rule="nonzero" stroke="#FEFEFE" stroke-width="4435.7" d="M1435220 1604042c-9002,-1824 -15362,-8306 -15362,-18978 0,-4927 1454,-9667 4273,-12772 3448,-3933 9152,-6482 16391,-6482l24033 0 0 63880 -6349 0 0 -24453 -16158 0 -16723 24453 -7709 0 17604 -25648zm22986 -4926l0 0 0 -26824 -17285 0c-9235,0 -14703,5201 -14703,13322 0,8297 6104,13502 14703,13502l17285 0z"/>
  </g>
 </g>
</svg>